<svg width="52" height="45" viewBox="0 0 52 45" fill="none" xmlns="http://www.w3.org/2000/svg">
<g clip-path="url(#clip0_3_21)">
<path d="M43.5933 12.5813L37.4617 7.275C36.2439 6.21981 34.5917 5.62631 32.8683 5.625H19.1317C17.4083 5.62631 15.7562 6.21981 14.5383 7.275L8.40667 12.5813C7.18733 13.6351 6.50152 15.0649 6.5 16.5562V33.75C6.5 35.2418 7.18482 36.6726 8.40381 37.7275C9.62279 38.7824 11.2761 39.375 13 39.375H39C40.7239 39.375 42.3772 38.7824 43.5962 37.7275C44.8152 36.6726 45.5 35.2418 45.5 33.75V16.5562C45.4985 15.0649 44.8127 13.6351 43.5933 12.5813ZM17.5933 9.91875C18.0085 9.57612 18.558 9.38191 19.1317 9.375H32.8683C33.442 9.38191 33.9915 9.57612 34.4067 9.91875L38.1117 13.125H13.8883L17.5933 9.91875ZM39 35.625H13C12.4254 35.625 11.8743 35.4275 11.4679 35.0758C11.0616 34.7242 10.8333 34.2473 10.8333 33.75V16.875H41.1667V33.75C41.1667 34.2473 40.9384 34.7242 40.5321 35.0758C40.1257 35.4275 39.5746 35.625 39 35.625Z" fill="black" fill-opacity="0.7"/>
<path d="M32.5 20.625C31.9254 20.625 31.3743 20.8225 30.9679 21.1742C30.5616 21.5258 30.3333 22.0027 30.3333 22.5C30.3333 23.4946 29.8768 24.4484 29.0641 25.1516C28.2515 25.8549 27.1493 26.25 26 26.25C24.8507 26.25 23.7485 25.8549 22.9359 25.1516C22.1232 24.4484 21.6667 23.4946 21.6667 22.5C21.6667 22.0027 21.4384 21.5258 21.0321 21.1742C20.6257 20.8225 20.0746 20.625 19.5 20.625C18.9254 20.625 18.3743 20.8225 17.9679 21.1742C17.5616 21.5258 17.3333 22.0027 17.3333 22.5C17.3333 24.4891 18.2464 26.3968 19.8717 27.8033C21.4971 29.2098 23.7015 30 26 30C28.2985 30 30.5029 29.2098 32.1283 27.8033C33.7536 26.3968 34.6667 24.4891 34.6667 22.5C34.6667 22.0027 34.4384 21.5258 34.0321 21.1742C33.6257 20.8225 33.0746 20.625 32.5 20.625Z" fill="black" fill-opacity="0.7"/>
</g>
<defs>
<clipPath id="clip0_3_21">
<rect width="52" height="45" fill="white"/>
</clipPath>
</defs>
</svg>
